<svg xmlns="http://www.w3.org/2000/svg" version="1.1" width="1154px" height="1039px" style="shape-rendering:geometricPrecision; text-rendering:geometricPrecision; image-rendering:optimizeQuality; fill-rule:evenodd; clip-rule:evenodd" xmlns:xlink="http://www.w3.org/1999/xlink">
<g><path style="opacity:1" fill="#f9faf9" d="M 583.5,55.5 C 726.078,54.2367 846.244,104.903 944,207.5C 963.928,230.425 981.928,254.759 998,280.5C 1025.46,328.587 1026.46,377.254 1001,426.5C 964.897,483.462 913.397,506.628 846.5,496C 729.061,466.561 654.561,393.394 623,276.5C 615.328,245.146 607.661,213.812 600,182.5C 589.147,228.583 575.813,273.917 560,318.5C 532.038,390.462 482.871,442.295 412.5,474C 396.81,480.786 380.81,486.786 364.5,492C 331.051,501.779 297.384,510.779 263.5,519C 296.864,527.675 330.198,536.675 363.5,546C 417.381,561.007 463.881,588.173 503,627.5C 525.808,653.011 543.808,681.677 557,713.5C 564.328,731.817 570.661,750.484 576,769.5C 584.12,800.313 591.453,831.313 598,862.5C 607.785,824.593 617.451,786.593 627,748.5C 661.244,639.591 733.744,571.091 844.5,543C 915.942,531.308 969.442,556.808 1005,619.5C 1026.17,669.721 1022.5,718.054 994,764.5C 915.783,884.252 805.617,955.752 663.5,979C 516.81,995.653 388.81,954.986 279.5,857C 183.894,764.733 135.228,651.733 133.5,518C 136.826,377.047 190.826,260.047 295.5,167C 378.671,97.3211 474.671,60.1545 583.5,55.5 Z"/></g>
</svg>
